<?xml version="1.0" encoding="utf-8"?>
<!-- Generator: Adobe Illustrator 19.2.0, SVG Export Plug-In . SVG Version: 6.00 Build 0)  -->
<svg version="1.1" id="seo" xmlns="http://www.w3.org/2000/svg" xmlns:xlink="http://www.w3.org/1999/xlink" x="0px" y="0px"
	 viewBox="0 0 225 225" style="enable-background:new 0 0 225 225;" xml:space="preserve">
<g>
	<path style="fill:#F9F9F9;" d="M0.9,138c0-2.6,0-5.3,0-7.9c2.3-2.6,4.5-5.3,6.9-7.8C43.1,86.1,78.9,50.5,114.8,15c2.1-2.1,4.4-3.2,7.3-3.6
		c18.2-2.7,36.5-2.5,54.7,0c5.8,0.8,8.8,5.4,12.6,9c0.3,0.3,0.4,1.1,0.3,1.6c-0.7,2.6-9.3,8.9-12.1,8.9c-12.4,0-21.3,8.5-21.2,20.3
		c0.1,11.2,9.5,20.4,20.6,20.1c11-0.3,19.8-10.2,19.4-21.9c-0.1-1.7-0.1-3.1,1.3-4.4c2.2-2.1,4.4-4.3,6.5-6.5
		c0.8-0.8,1.7-1.7,2.9-0.5c4.1,4.2,8.4,7.9,9.2,14.4c1.9,15.5,1.7,31,0.6,46.5c-0.5,6.8-3.1,12.1-7.9,16.9
		c-30.8,30.5-61.3,61.3-91.9,92c-6.3,6.3-12.3,12.8-19.5,18.2c-3.2,0-6.4,0-9.7,0c-21-20-41.5-40.4-61.8-61.1
		C17.5,156,8.3,147.8,0.9,138z M133.2,64.2c-12-0.1-24,11.5-24.1,23.4c-0.2,12.6,13.8,26.7,26.3,26.6c11.5-0.1,23.6-12.2,23.7-23.6
		C159.2,77.9,145.8,64.2,133.2,64.2z M104.9,140.3c-1.9-2-4-4.5-6.4-6.6c-2.2-2-2-3.3,0-5.3c4.1-4,7.9-8.2,11.9-12.3
		c1.5-1.6,1.8-3.4,0.3-5.1c-1.8-2-3.5-0.9-4.9,0.4c-3.1,2.8-6.1,5.9-9.2,8.8c-6.5,6.1-4.4,6.7-11.7-0.1c-2.3-2.1-1.7-3.4,0.2-5.2
		c4.3-4.2,8.4-8.5,12.6-12.9c1.6-1.7,2.7-3.7,0.8-5.8c-2-2.2-4-1-5.7,0.5c-6.6,6-12.7,12.5-18.8,19.1c-1.9,2.1-1.9,4.1,0.1,6.2
		c8.6,9.4,17.6,18.4,27,27c2.4,2.2,4.6,2.3,6.9,0c6.4-6.3,12.7-12.5,19.1-18.8c1.8-1.8,2.7-3.9,0.5-6.1c-2.3-2.3-4.1-0.5-5.6,1
		c-4.7,4.4-9.2,9-13.8,13.5C107.3,139.2,106.8,140.2,104.9,140.3z M70.7,179.4c8,0.1,16.7-6.1,20.1-14.2c2.7-6.4,1.8-11.9-2.9-16.5
		c-4.4-4.4-9-5.1-15.7-2c-4.2,2-8.3,4.4-12.4,6.5c-2.4,1.2-5,2.4-7.1-0.4c-2-2.6-1.1-5.3,0.5-7.8c3.1-4.9,7.6-5.5,12.7-4.1
		c2.5,0.7,4.8,0.4,5.8-2.3c0.9-2.7-0.7-4.5-2.8-5.7c-3.3-1.8-6.8-1.9-10.2-0.5c-6.9,3-11.9,8.1-14.4,15.1
		c-2.1,5.8,0.8,12.5,6.1,14.9c3.9,1.8,8,1.5,11.8-0.5c4.4-2.3,8.8-4.6,13.3-6.7c2.2-1,4.6-1,6.6,0.8c2.1,1.9,2.1,4.4,1.4,6.9
		c-1.7,6.1-7.5,9.3-13.6,7.6c-1.1-0.3-2.2-0.7-3.4-0.9c-2.2-0.4-4.1-0.1-5.2,2.2c-1.1,2.3,0.3,3.9,1.9,5.3
		C65.3,179,68,179.5,70.7,179.4z"/>
	<path style="fill:#F9F9F9;" d="M97.6,225.9c7.1-5.4,13.2-11.9,19.5-18.2c30.7-30.6,61.2-61.4,91.9-92c4.9-4.8,7.5-10.1,7.9-16.9
		c1.1-15.5,1.3-31-0.6-46.5c-0.8-6.5-5.1-10.3-9.2-14.4c-1.2-1.3-2.1-0.4-2.9,0.5c-2.2,2.2-4.3,4.4-6.5,6.5
		c-1.4,1.3-1.3,2.7-1.3,4.4C196.8,61,188,70.9,177,71.2c-11.2,0.3-20.6-8.9-20.6-20.1c-0.1-11.7,8.9-20.3,21.2-20.3
		c2.8,0,11.5-6.3,12.1-8.9c0.1-0.5,0-1.3-0.3-1.6c-3.8-3.6-6.7-8.2-12.6-9c-18.2-2.5-36.5-2.7-54.7,0c-2.9,0.4-5.2,1.6-7.3,3.6
		C78.9,50.5,43.1,86.1,7.8,122.3c-2.4,2.5-4.6,5.2-6.9,7.8C0.9,88,0.9,46,0.8,4c0-2.6,0.5-3.2,3.1-3.1c72.9,0.1,145.9,0.1,218.8,0
		c5.4,0,2.2,3.5,3.1,5.4c-4.4-5.8-6.3-6-11.4-0.9c-13.1,13-26.1,26.1-39.1,39.2c-2.9,3-3.1,6.1-0.7,8.4c2.4,2.3,5.5,1.9,8.4-1
		c9.2-9.2,18.4-18.5,27.7-27.6c5-4.9,9.6-10.3,15.1-14.6c0,70.9,0,141.8,0.1,212.7c0,3-0.6,3.6-3.6,3.6
		C180.8,225.8,139.2,225.9,97.6,225.9z"/>
	<path style="fill:#F9F9F9;" d="M0.9,138c7.4,9.8,16.6,18,25.2,26.8c20.3,20.7,40.8,41.1,61.8,61.1c-27.9,0-55.8,0-83.7,0.1
		c-2.7,0-3.4-0.6-3.4-3.4C0.9,194.4,0.9,166.2,0.9,138z"/>
	<path style="fill:#F9F9F9;" d="M225.9,9.7c-5.6,4.3-10.1,9.7-15.1,14.6c-9.3,9.1-18.5,18.4-27.7,27.6c-2.9,2.9-6.1,3.2-8.4,1
		c-2.4-2.3-2.2-5.5,0.7-8.4c13-13.1,26-26.2,39.1-39.2c5.1-5.1,7.1-4.8,11.4,0.9C225.9,7.3,225.9,8.5,225.9,9.7z"/>
	<path style="fill:#F9F9F9;" d="M133.2,64.2c12.6,0.1,26,13.8,25.9,26.4c-0.1,11.4-12.2,23.5-23.7,23.6c-12.5,0.1-26.5-14.1-26.3-26.6
		C109.3,75.7,121.2,64.1,133.2,64.2z M137.4,104.8c8.2-0.1,14.3-7.6,12.2-15.6c-2-7.8-7.3-13-14.8-15.5c-8.3-2.7-16.6,3.7-16.4,12.4
		C118.4,95.1,128.5,104.9,137.4,104.8z"/>
	<path style="fill:#F9F9F9;" d="M104.9,140.3c1.9,0,2.4-1,3.1-1.7c4.6-4.5,9.1-9.1,13.8-13.5c1.6-1.5,3.4-3.3,5.6-1c2.2,2.2,1.3,4.3-0.5,6.1
		c-6.3,6.3-12.7,12.5-19.1,18.8c-2.3,2.3-4.5,2.2-6.9,0c-9.4-8.6-18.4-17.6-27-27c-1.9-2.1-2-4.1-0.1-6.2
		c6.1-6.5,12.1-13.1,18.8-19.1c1.7-1.5,3.7-2.8,5.7-0.5c1.9,2.1,0.9,4.1-0.8,5.8c-4.1,4.3-8.3,8.7-12.6,12.9
		c-1.9,1.8-2.5,3.1-0.2,5.2c7.3,6.8,5.2,6.2,11.7,0.1c3.1-2.9,6.1-5.9,9.2-8.8c1.4-1.3,3.2-2.4,4.9-0.4c1.5,1.7,1.2,3.5-0.3,5.1
		c-3.9,4.1-7.8,8.4-11.9,12.3c-2,2-2.2,3.3,0,5.3C100.9,135.8,103,138.3,104.9,140.3z"/>
	<path style="fill:#F9F9F9;" d="M70.7,179.4c-2.6,0.1-5.3-0.4-7.5-2.3c-1.6-1.4-3-2.9-1.9-5.3c1-2.3,3-2.6,5.2-2.2c1.1,0.2,2.3,0.6,3.4,0.9
		c6.1,1.7,11.9-1.5,13.6-7.6c0.7-2.5,0.7-5-1.4-6.9c-2-1.8-4.4-1.8-6.6-0.8c-4.5,2.1-8.9,4.5-13.3,6.7c-3.9,2-7.9,2.3-11.8,0.5
		c-5.3-2.4-8.1-9.1-6.1-14.9c2.5-7.1,7.5-12.2,14.4-15.1c3.3-1.5,6.9-1.4,10.2,0.5c2.1,1.2,3.8,3,2.8,5.7c-1,2.8-3.2,3.1-5.8,2.3
		c-5.1-1.4-9.6-0.8-12.7,4.1c-1.6,2.5-2.4,5.2-0.5,7.8c2.1,2.8,4.7,1.5,7.1,0.4c4.2-2.1,8.2-4.5,12.4-6.5c6.7-3.1,11.3-2.4,15.7,2
		c4.6,4.6,5.6,10.1,2.9,16.5C87.3,173.3,78.6,179.5,70.7,179.4z"/>
	<path style="fill:#F9F9F9;" d="M137.4,104.8c-8.8,0.1-18.9-9.8-19.1-18.6c-0.2-8.7,8.1-15.2,16.4-12.4c7.6,2.5,12.8,7.7,14.8,15.5
		C151.6,97.2,145.5,104.8,137.4,104.8z"/>
</g>
</svg>
